<svg xmlns="http://www.w3.org/2000/svg" xmlns:xlink="http://www.w3.org/1999/xlink" viewBox="0 0 140.9 84.48"><defs><style>.cls-1{fill:none;}.cls-2{clip-path:url(#clip-path);}.cls-3{fill:#fff;}</style><clipPath id="clip-path"><rect class="cls-1" x="0.25" y="0.25" width="140.65" height="83.98"/></clipPath></defs><title>d</title><g id="Layer_4" data-name="Layer 4"><g class="cls-2"><path class="cls-3" d="M-4.72,67.14c4.17-8.5,8.33-17,12.54-25.49a21.87,21.87,0,0,1,2.35-3.52A12.09,12.09,0,0,1,20,33.06c5.66-.05,11.33,0,17,0A12.2,12.2,0,0,1,48.2,39.25C51,44,53.35,49.09,55.86,54c.72,1.43,1.32,2.91,2,4.45-3.7,1.51-5.67,4.6-7.54,8.14L41.42,48.78l-.26,0q0,.8,0,1.61,0,40,0,60.2c0,2.8-1.3,4.86-3.57,5.72A5.5,5.5,0,0,1,30.1,111c0-9.06,0-11.5,0-20.56,0-1.56,0-3.11,0-4.8H27.58c0,.53,0,1,0,1.55,0,10.15,0,13.67,0,23.82a5.55,5.55,0,0,1-3.67,5.36,5.18,5.18,0,0,1-6.08-1.76,7.17,7.17,0,0,1-1.23-3.77c-.08-20.16-.05-40.32-.05-60.48,0-.51,0-1,0-2-.43.73-.67,1.09-.88,1.48-3.53,6.82-7,13.66-10.6,20.46C3.3,73.66-.77,74.37-3.23,71.76a13.88,13.88,0,0,1-1.48-2.36Q-4.72,68.27-4.72,67.14Z"/><path class="cls-3" d="M77.29,58.45c3.39-6.52,6.49-12.92,10-19.09,2.56-4.49,6.77-6.47,12-6.38s10.29.05,15.44,0a12.55,12.55,0,0,1,11.09,5.68,59,59,0,0,1,4,6.83c3.37,6.75,6.63,13.55,9.91,20.34a5,5,0,0,1-.92,6,4.83,4.83,0,0,1-5.86.88A7.48,7.48,0,0,1,130.42,70c-3.45-6.49-6.78-13-10.16-19.58a3,3,0,0,0-.91-1.16L127.76,90h-8.65c0,1.14,0,2.12,0,3.1,0,6,0,12.09,0,18.13a5.39,5.39,0,0,1-4.28,5.29,5.33,5.33,0,0,1-6-2.69,7.74,7.74,0,0,1-.73-3.25c-.07-6.28,0-12.56,0-18.84,0-.51,0-1,0-1.64h-2.49q0,.74,0,1.49c0,6.42,0,12.84,0,19.26a5.5,5.5,0,0,1-7.18,5.51,5.61,5.61,0,0,1-3.89-5.64c0-6.33,0-12.65,0-19,0-.51,0-1,0-1.69H89.25a7.29,7.29,0,0,0,3.35-4.75,8,8,0,0,0-1.11-5.69,26.45,26.45,0,0,1-1.7-3.57,5.39,5.39,0,0,1-.32-2.68C91,65.68,92.54,58,94.1,50.26a2.14,2.14,0,0,0,0-1.19l-4.38,8.32-4.45,8.47C83.41,62.58,81.32,59.79,77.29,58.45Z"/><path class="cls-3" d="M59.36,72c-.86,1.64-1.74,3.28-2.59,4.93-1.56,3-3.08,6-4.67,9a3.39,3.39,0,0,1-4.58,1.58A3.33,3.33,0,0,1,45.92,83q3.92-8.13,8-16.2c2.06-4.1,5.31-6.17,10-5.89,3.1.18,6.23,0,9.34,0a8.39,8.39,0,0,1,7.33,3.79,41.4,41.4,0,0,1,2.76,4.75c2.17,4.33,4.26,8.7,6.36,13.06,1,2.09.47,4.06-1.35,5s-3.69.21-4.79-1.88c-2.16-4.13-4.29-8.27-6.43-12.4a2.62,2.62,0,0,0-.93-1.1q0,.81,0,1.62,0,18.9,0,37.81a15.49,15.49,0,0,1,0,1.56,3.76,3.76,0,1,1-7.52-.3c0-5.38,0-10.76,0-16.14,0-1.64,0-3.29,0-5l-1.36-.08a10.36,10.36,0,0,0-.11,1q0,10,0,20A3.89,3.89,0,0,1,65,116.35a3.48,3.48,0,0,1-3.86-.42,4.2,4.2,0,0,1-1.53-3.63c0-5.71,0-11.42,0-17.13q0-10.83,0-21.66V72Z"/><path class="cls-3" d="M28.82,6.24A12.32,12.32,0,1,1,16.5,18.54,12.37,12.37,0,0,1,28.82,6.24Z"/><path class="cls-3" d="M119.09,18.56A12.32,12.32,0,1,1,106.93,6.24,12.28,12.28,0,0,1,119.09,18.56Z"/><path class="cls-3" d="M67.95,59.63a8.27,8.27,0,1,1,8.25-8.32A8.37,8.37,0,0,1,67.95,59.63Z"/></g></g></svg>