<svg xmlns="http://www.w3.org/2000/svg" xmlns:xlink="http://www.w3.org/1999/xlink" viewBox="0 0 89.34 84.48"><defs><style>.cls-1,.cls-3{fill:none;}.cls-2{clip-path:url(#clip-path);}.cls-3{stroke:#fff;stroke-miterlimit:10;stroke-width:0.75px;}.cls-4{fill:#fff;}</style><clipPath id="clip-path"><rect class="cls-1" x="0.25" y="0.25" width="89.09" height="83.98"/></clipPath></defs><title>d</title><g id="Layer_4" data-name="Layer 4"><g class="cls-2"><path class="cls-3" d="M-6.51,65.72C-2.4,57.35,1.69,49,5.85,40.62a21.54,21.54,0,0,1,2.32-3.47,11.9,11.9,0,0,1,9.68-5c5.58,0,11.16,0,16.74,0a12,12,0,0,1,11,6.14c2.74,4.73,5.07,9.69,7.54,14.57.71,1.4,1.3,2.87,2,4.38-3.65,1.48-5.58,4.53-7.42,8L38.93,47.65l-.26,0q0,.79,0,1.58,0,29.64,0,59.28c0,2.76-1.28,4.78-3.52,5.63a5.41,5.41,0,0,1-7.37-5.27c0-8.93,0-10.55,0-19.48,0-1.53,0-3.06,0-4.73H25.3c0,.52,0,1,0,1.52,0,10,0,12.69,0,22.69a5.46,5.46,0,0,1-3.62,5.28,5.1,5.1,0,0,1-6-1.73,7.06,7.06,0,0,1-1.22-3.72c-.07-19.85-.05-39.7-.05-59.55,0-.5,0-1,0-1.93-.42.71-.66,1.07-.86,1.46C10.07,55.42,6.62,62.15,3.11,68.85c-1.72,3.29-5.73,4-8.16,1.42A13.67,13.67,0,0,1-6.51,68Q-6.51,66.84-6.51,65.72Z"/><path class="cls-3" d="M26.52,5.75A12.13,12.13,0,1,1,14.39,17.86,12.18,12.18,0,0,1,26.52,5.75Z"/><path class="cls-4" d="M65,58.33a8.15,8.15,0,1,1,8.13-8.2A8.24,8.24,0,0,1,65,58.33Z"/><path class="cls-4" d="M86.5,80.87c-2.08-4.29-4.13-8.59-6.27-12.86a40.76,40.76,0,0,0-2.72-4.67,8.26,8.26,0,0,0-7.22-3.73c-3.07,0-6.14.14-9.2,0-4.66-.27-7.85,1.77-9.88,5.8q-4,7.94-7.85,16a3.27,3.27,0,0,0,1.58,4.47,3.34,3.34,0,0,0,4.51-1.56c1.57-2.94,3.06-5.93,4.6-8.89.84-1.62,1.7-3.24,2.55-4.86l.27.06V72q0,10.67,0,21.33c0,5.62,0,11.25,0,16.87a4.13,4.13,0,0,0,1.5,3.57,3.42,3.42,0,0,0,3.8.41,3.83,3.83,0,0,0,2.15-3.76q0-9.83,0-19.66c0-.31.06-.62.11-1l1.34.08c0,1.71,0,3.33,0,5,0,5.3,0,10.6,0,15.9a3.7,3.7,0,1,0,7.4.29,15.26,15.26,0,0,0,0-1.53q0-18.62,0-37.23V70.62a2.58,2.58,0,0,1,.92,1.09c2.11,4.07,4.21,8.15,6.34,12.21,1.08,2.06,2.92,2.76,4.72,1.85S87.5,82.93,86.5,80.87ZM70.16,71.52H66.84v3.32H63.2V71.52H59.88V67.88H63.2V64.56h3.64v3.32h3.32Z"/></g></g></svg>